<?xml version="1.0" encoding="utf-8"?>
<!-- Generator: Adobe Illustrator 14.0.0, SVG Export Plug-In . SVG Version: 6.00 Build 43363)  -->
<!DOCTYPE svg PUBLIC "-//W3C//DTD SVG 1.1//EN" "http://www.w3.org/Graphics/SVG/1.1/DTD/svg11.dtd">
<?xml-stylesheet type="text/css" href="../maproom.css" ?> 
<svg version="1.1" id="Layer_1" xmlns="http://www.w3.org/2000/svg" xmlns:xlink="http://www.w3.org/1999/xlink" width="100%" height="100%"
	 viewBox="175 175 235 235" xml:space="preserve" class="iriiconsvg">
<g>
	<path d="M386.467,250.092c12.397,23.674,14.312,58.076,3.92,83.263c-10.438,30.14-41.115,57.387-71.896,64.102
		c-42.534,10.145-84.092-4.803-110.262-39.845c-19.749-26.168-25.779-65.862-13.526-97.419
		c9.261-27.345,35.725-53.662,63.222-62.437c39.648-13.819,83.946-2.893,112.174,28.275
		C376.861,233.53,382.251,241.568,386.467,250.092z M362.504,223.628c-27.687-27.635-73.361-35.774-109.189-19.995
		c-37.588,15.637-62.532,54.497-61.161,95.271c0.101,30.919,23.134,60.129,51.262,71.45c21.565,9.9,52.39,9.263,72.383-3.576
		c-15.438,5.391-35.627,4.604-50.528-1.521c-25.534-9.556-45.182-36.412-46.554-63.366c-2.207-30.134,13.672-58.12,40.625-71.891
		c11.371-8.281,23.815-13.867,37.786-15.928c37.148-4.506,71.893,13.574,89.632,46.216l-1.028-2.796
		C380.439,245.191,372.991,233.775,362.504,223.628z M322.514,232.451c-23.477-11.615-55.672-7.301-75.176,10
		c-22.055,18.917-30.336,48.462-21.369,76.104c5.882,19.213,24.062,37.885,43.272,44.011c26.268,9.312,55.92,2.204,74.883-18.181
		c19.212-19.653,24.654-52.831,12.645-77.482C350.548,252.691,336.777,238.723,322.514,232.451z" />
	<path d="M263.947,267.295c0.59,0.49,0.395,1.521,0.297,2.207c-1.173,0.538-2.596,0.392-3.819,0.836
		c-2.207,0.78-2.308,3.333-2.404,5.387l0.097,41.604c0.199,1.323,0.345,2.649,1.52,3.528c1.326,0.636,2.797,0.789,4.31,0.982
		c0.69,0.391,0.346,1.468,0.297,2.108l-0.39,0.388c-6.764-0.437-14.068-0.437-20.832,0c-0.536-0.583-0.536-1.467-0.34-2.204
		l0.193-0.292c2.06-0.393,4.855-0.147,5.54-2.595l0.489-3.922v-40.09c-0.343-1.815-0.244-4.115-2.305-4.895l-3.724-0.643
		c-0.487-0.485-0.292-1.417-0.193-2.056l0.34-0.345C249.837,267.691,257.185,267.691,263.947,267.295z"/>
	<path d="M343.439,324.741l-0.197-0.01c-9.26-0.737-18.621,0.1-27.981,0c-13.232-0.737-16.317-15.535-22.053-24.257
		c-1.321-2.109-3.923-1.717-5.976-1.472l-0.444,0.589l0.098,17.638c0.292,1.422,0.346,2.992,1.812,3.827l3.923,0.783
		c0.637,0.245,0.637,1.177,0.489,1.814l-0.295,0.587c-6.762-0.247-14.162-0.394-21.025,0.095c-0.733-0.489-0.587-1.418-0.44-2.106
		l0.247-0.391c2.061-0.393,4.806-0.098,5.587-2.501l0.491-3.92v-40.675c-0.294-1.471-0.394-3.433-2.206-3.819
		c-1.226-0.638-3.431,0.242-3.873-1.324c0.052-0.539-0.052-1.08,0.293-1.47c11.27-0.392,25.093-3.183,34.552,3.181l2.743,2.944
		c2.693,4.066,3.137,10.583,0.881,14.997c-1.617,3.284-5.097,5.634-8.135,7.252l0.196,0.978c3.773,7.008,7.353,14.118,12.25,20.683
		c2.061,2.55,4.621,4.083,7.842,3.976c1.875-0.062,4.266,0.038,5.198-2.112c1.469-3.729,0.781-8.331,0.977-12.595l-0.094-32.394
		c-0.298-1.622-0.345-3.729-2.306-4.312l-3.774-0.688c-0.391-0.538-0.342-1.47-0.049-2.107l0.345-0.293
		c6.762,0.49,14.113,0.393,20.827,0.098c0.538,0.44,0.538,1.372,0.391,2.009l-0.196,0.293c-1.812,0.738-4.359,0-5.389,2.108
		c-1.125,3.577-0.637,7.74-0.735,11.709l0.098,33.472c0.247,1.617,0.295,3.727,2.254,4.317l3.771,0.684
		c0.396,0.54,0.343,1.47,0.098,2.107C343.603,324.561,343.439,324.741,343.439,324.741z M293.747,270.924
		c-1.96-0.05-5.05-0.983-6.127,1.125l-0.097,22.053c0,0.687,0.443,1.225,1.077,1.372c4.46,0.293,9.116,0.049,11.761-3.92
		c2.303-4.213,2.7-10.634,0.391-14.998C299.578,273.812,296.636,271.462,293.747,270.924z"/>
<a target="_parent" xlink:href="http://iri.columbia.edu/">
<circle cx="294" cy="295" r="102" fill="red" fill-opacity="0" />
</a>
</g>
</svg>
